<svg version="1.2" xmlns="http://www.w3.org/2000/svg" viewBox="0 0 3163 730" width="3163" height="730">
	<title>White logo - no background-svg</title>
	<style>
		.s0 { fill: #ffffff } 
	</style>
	<g id="Layer">
		<g id="SvgjsG1060">
			<path id="Layer" fill-rule="evenodd" class="s0" d="m648.6 364.9c0 156.7-127 283.7-283.7 283.7-156.8 0-283.8-127-283.8-283.7 0-156.8 127-283.8 283.8-283.8 156.7 0 283.7 127 283.7 283.8zm-36.3 0c0-136.6-110.9-247.4-247.4-247.4q-14.7 0-28.6 1.6l43.4 43.1c14.6-10 34.7-8.6 47.6 4.2 14.5 14.6 14.5 38.1 0 52.7-14.6 14.5-38.1 14.5-52.6 0-12.9-12.9-14.3-33.1-4.2-47.6l-50.1-50.1c-29.7 5.3-57.7 16.2-82.6 31l83.1 82.6h57.4l43.1 43.1c14.6-10.1 34.7-8.7 47.6 4.2 14.5 14.6 14.5 38.1 0 52.6-14.6 14.6-38.1 14.6-52.6 0-12.9-12.9-14.3-33-4.2-47.6l-39.2-39.1h-57.4l-88.7-88.8c-4.5 2.8-8.7 5.9-12.6 9l257.8 257.8c14.5-10.4 34.9-9 47.8 4.2 13.7 13.9 14.3 36.9 0.9 51.4-14.6 15.7-39 16-53.8 1.2-12.9-12.9-14.3-33.1-4.2-47.6l-258.6-258.6c-3.9 3.4-7.5 6.7-11.2 10.1l52.1 52.3v57.7l110.8 110.8c14.6-10.1 34.7-8.7 47.6 4.2 14.5 14.5 14.5 38 0 52.6-14.6 14.6-38.1 14.6-52.6 0-12.9-12.9-14.3-33-4.2-47.6l-114.8-114.7 0.3-0.3v-57.7l-48.4-47.8c-6.7 7.3-13.2 14.8-19 22.9l17 17.1v90.7l52.4 52.3c14.5-10.1 34.7-8.7 47.5 4.2 14.6 14.6 14.6 38.1 0 52.6-14.5 14.6-38 14.6-52.6 0-12.8-12.8-14.2-33-4.2-47.5l-43.1-43.1v61.5l61 61c14.6-10 34.7-8.6 47.6 4.2 14.6 14.6 14.6 38.1 0 52.6-14.5 14.6-38 14.6-52.6 0-12.9-12.8-14.3-33-4.2-47.5l-64.9-65 0.3-0.2v-79.8l-40.6-40.6c-7 23-10.9 47.6-10.9 73.1 0 136.5 110.8 247.4 247.4 247.4 136.5 0 247.4-110.9 247.4-247.4zm-479.2-86.8l35.6 35.8v-72.5l-11.5-11.4c-9.5 15.1-17.9 31-24.1 48.1zm113.9 237.6c9.6 9.5 24.9 9.5 34.5 0 9.5-9.5 9.5-24.9 0-34.4-9.6-9.5-24.9-9.5-34.5 0-9.5 9.5-9.5 24.9 0 34.4zm-8.6-88.7c9.5 9.5 24.9 9.5 34.4 0 9.5-9.5 9.5-24.9 0-34.4-9.5-9.5-24.9-9.5-34.4 0-9.5 9.5-9.5 25.2 0 34.4zm121.4 28.3c9.5 9.5 24.9 9.5 34.5 0 9.5-9.6 9.5-24.9 0-34.5-9.6-9.5-25-9.5-34.5 0-9.2 9.6-9.2 24.9 0 34.5zm116.2 18.7c9.5 9.5 24.9 9.5 34.4 0 9.5-9.5 9.5-24.9 0-34.4-9.5-9.5-24.9-9.5-34.4 0-9.5 9.5-9.5 24.9 0 34.4zm-50.4-147.8c9.5 9.6 24.9 9.6 34.4 0 9.5-9.5 9.5-24.9 0-34.4-9.5-9.5-24.9-9.5-34.4 0-9.5 9.5-9.5 24.9 0 34.4zm-42-116.4c9.5 9.5 24.9 9.5 34.4 0 9.6-9.5 9.6-24.9 0-34.4-9.5-9.5-24.9-9.5-34.4 0-9.5 9.5-9.5 25.2 0 34.4z"/>
		</g>
		<g id="SvgjsG1061">
			<path id="Layer" fill-rule="evenodd" class="s0" d="m914.5 340c22.7 0 41 18.3 41 41v59.4c0 22.6-18.3 40.7-41 40.7h-103.7v-52.5h91.9v-35.8h-51.2c-22.6 0-40.7-18.4-40.7-41v-59.4c0-22.7 18.4-41 40.7-41h104v52.8h-92.2v35.8zm189-88.6l64 229.7h-52.5l-9.2-33.2h-56.7l-9.2 33.2h-52.5l64-229.7zm-39.7 143h27.2l-13.8-48.9zm287.2-143h52.5v229.7h-52.5v-102.7l-33.5 80.7h-16.8l-33.4-80.7v102.7h-52.5v-229.7h52.5l41.7 100.7zm209.7 177.2v-177.2h52.5v189c0 22.7-18.4 40.7-41.1 40.7h-80.7c-22.6 0-40.7-18-40.7-40.7v-189h52.5v177.2zm244.2-124.4h-91.9v35.8h66v52.5h-66v36.1h91.9v52.5h-144.4v-229.7h144.4zm99.7-52.8v177.2h84.7v52.5h-137.2v-229.7zm318.4 0c22.6 0 41 18.3 41 41v43.3c0 15.1-10.8 27.9-25.9 30.2l-2 0.3 2 0.4c15.1 2.6 25.9 15.4 25.9 30.1v43.7c0 22.3-18.4 40.7-41 40.7h-121.5v-229.7zm-11.4 166.3v-14.1c0-6.2-5-10.8-10.9-10.8h-46.6v35.8h46.6c5.9 0 10.9-4.9 10.9-10.9zm0-88.6v-14.1c0-5.9-5-10.8-10.9-10.8h-46.6v35.8h46.6c5.9 0 10.9-5 10.9-10.9zm199.2-77.7l63.9 229.7h-52.5l-9.2-33.2h-56.7l-9.2 33.2h-52.5l64-229.7zm-39.7 143h27.2l-13.8-48.8zm249.8-54.5c22.6 0 41 18.4 41 41v59.4c0 22.6-18.4 40.7-41 40.7h-103.7v-52.5h91.8v-35.8h-51.2c-22.6 0-40.6-18.4-40.6-41v-59.4c0-22.7 18.3-41 40.6-41h104.1v52.8h-92.2v35.8zm198.2 62.3h52.5v37.8c0 22.6-18.4 41-41 41h-80.4c-22.7 0-41.1-18.4-41.1-41v-147.7c0-22.7 18.4-41 41.1-41h80.4c22.6 0 41 18.3 41 41v37.7h-52.5v-25.9h-57.5v124.4h57.5zm209.7-62.4v-88.6h52.5v229.7h-52.5v-88.6h-57.5v88.6h-52.5v-229.7h52.5v88.6z"/>
		</g>
	</g>
</svg>